<svg width="144" height="144" viewBox="0 0 144 144" fill="none" xmlns="http://www.w3.org/2000/svg">
<circle cx="72" cy="72" r="72" fill="white"/>
<g clip-path="url(#clip0_177_236)">
<path d="M102 55.948C102 57.548 101.36 59.108 100.2 60.188L68.24 92.188C67.28 93.228 65.68 93.948 64 93.948C62.32 93.948 60.72 93.228 59.6 92.028L43.76 76.188C42.68 75.148 42 73.588 42 71.948C42 70.308 42.68 68.748 43.84 67.628C45.76 65.588 50.08 65.468 52.32 67.788L64 79.508L91.76 51.708C93.84 49.508 98.08 49.468 100.32 51.788C101.32 52.748 102 54.308 102 55.948V55.948Z" fill="#B1B9BE"/>
<path d="M72 20C100.672 20 124 43.328 124 72C124 100.672 100.672 124 72 124C43.328 124 20 100.672 20 72C20 43.328 43.328 20 72 20ZM72 12C38.864 12 12 38.864 12 72C12 105.136 38.864 132 72 132C105.136 132 132 105.136 132 72C132 38.864 105.136 12 72 12Z" fill="#B1B9BE"/>
</g>
<defs>
<clipPath id="clip0_177_236">
<rect width="120" height="120" fill="white" transform="translate(12 12)"/>
</clipPath>
</defs>
</svg>
